<mxfile host="app.diagrams.net" modified="2022-02-24T13:58:23.848Z" agent="5.0 (X11; Linux x86_64) AppleWebKit/537.36 (KHTML, like Gecko) Chrome/98.0.4758.80 Safari/537.36" etag="es_9iY-F_WiJmfaXYN8O" version="16.6.2" type="github">
  <diagram id="WPEv7_fQMqJkbkxtA6RX" name="Page-1">
    <mxGraphModel dx="1357" dy="805" grid="1" gridSize="10" guides="1" tooltips="1" connect="1" arrows="1" fold="1" page="1" pageScale="1" pageWidth="827" pageHeight="1169" math="0" shadow="0">
      <root>
        <mxCell id="0" />
        <mxCell id="1" parent="0" />
        <mxCell id="QsOgN2Aafq3JMQsIq-xc-1" value="Timeline" style="rounded=0;whiteSpace=wrap;html=1;" parent="1" vertex="1">
          <mxGeometry x="375" y="259" width="120" height="60" as="geometry" />
        </mxCell>
        <mxCell id="QsOgN2Aafq3JMQsIq-xc-2" value="FullVideo" style="rounded=0;whiteSpace=wrap;html=1;" parent="1" vertex="1">
          <mxGeometry x="144" y="445" width="120" height="60" as="geometry" />
        </mxCell>
        <mxCell id="QsOgN2Aafq3JMQsIq-xc-3" value="Log" style="rounded=0;whiteSpace=wrap;html=1;" parent="1" vertex="1">
          <mxGeometry x="600" y="445" width="120" height="60" as="geometry" />
        </mxCell>
        <mxCell id="_j7cocHMK6KkARnPaYbS-6" value="&lt;span style=&quot;font-size: 11px ; background-color: rgb(255 , 255 , 255)&quot;&gt;{&lt;br&gt;&amp;nbsp; time: number;&lt;br&gt;&amp;nbsp; source: &#39;log&#39;&lt;br&gt;}&lt;/span&gt;" style="whiteSpace=wrap;html=1;aspect=fixed;align=left;" vertex="1" parent="1">
          <mxGeometry x="385" y="425" width="100" height="100" as="geometry" />
        </mxCell>
        <mxCell id="_j7cocHMK6KkARnPaYbS-7" value="" style="endArrow=classic;startArrow=classic;html=1;rounded=0;exitX=1;exitY=0.5;exitDx=0;exitDy=0;" edge="1" parent="1" source="QsOgN2Aafq3JMQsIq-xc-2" target="_j7cocHMK6KkARnPaYbS-6">
          <mxGeometry width="50" height="50" relative="1" as="geometry">
            <mxPoint x="220" y="490" as="sourcePoint" />
            <mxPoint x="300" y="510" as="targetPoint" />
          </mxGeometry>
        </mxCell>
        <mxCell id="_j7cocHMK6KkARnPaYbS-8" value="" style="endArrow=classic;startArrow=classic;html=1;rounded=0;exitX=1;exitY=0.5;exitDx=0;exitDy=0;entryX=0;entryY=0.5;entryDx=0;entryDy=0;" edge="1" parent="1" source="_j7cocHMK6KkARnPaYbS-6" target="QsOgN2Aafq3JMQsIq-xc-3">
          <mxGeometry width="50" height="50" relative="1" as="geometry">
            <mxPoint x="350" y="380" as="sourcePoint" />
            <mxPoint x="400" y="330" as="targetPoint" />
          </mxGeometry>
        </mxCell>
        <mxCell id="_j7cocHMK6KkARnPaYbS-9" value="" style="endArrow=classic;startArrow=classic;html=1;rounded=0;entryX=0.5;entryY=1;entryDx=0;entryDy=0;" edge="1" parent="1" source="_j7cocHMK6KkARnPaYbS-6" target="QsOgN2Aafq3JMQsIq-xc-1">
          <mxGeometry width="50" height="50" relative="1" as="geometry">
            <mxPoint x="400" y="380" as="sourcePoint" />
            <mxPoint x="450" y="330" as="targetPoint" />
          </mxGeometry>
        </mxCell>
      </root>
    </mxGraphModel>
  </diagram>
</mxfile>
